<?xml version="1.0" encoding="UTF-8"?>
<svg xmlns="http://www.w3.org/2000/svg" xmlns:xlink="http://www.w3.org/1999/xlink" width="256px" height="256px" viewBox="0 0 256 256" version="1.1">
<g id="surface1">
<path style=" stroke:none;fill-rule:nonzero;fill:rgb(53.333333%,81.176471%,69.019608%);fill-opacity:1;" d="M 87.578125 248.6875 L 87.578125 172.167969 L 167.199219 172.167969 L 167.199219 203.253906 C 167.199219 227.960938 147.292969 248.6875 121.816406 248.6875 Z M 87.578125 248.6875 "/>
<path style=" stroke:none;fill-rule:nonzero;fill:rgb(94.901961%,78.823529%,29.803922%);fill-opacity:1;" d="M 168.792969 170.570312 L 168.792969 89.273438 L 248.414062 89.273438 L 248.414062 125.140625 C 248.414062 149.847656 228.507812 170.570312 203.027344 170.570312 Z M 168.792969 170.570312 "/>
<path style=" stroke:none;fill-rule:nonzero;fill:rgb(74.117647%,51.372549%,80.784314%);fill-opacity:1;" d="M 167.199219 89.273438 L 87.578125 89.273438 L 87.578125 169.773438 L 167.199219 169.773438 Z M 167.199219 89.273438 "/>
<path style=" stroke:none;fill-rule:nonzero;fill:rgb(25.098039%,74.509804%,53.333333%);fill-opacity:1;" d="M 6.371094 87.679688 L 6.371094 51.8125 C 6.371094 27.101562 26.277344 6.378906 51.753906 6.378906 L 85.992188 6.378906 L 85.992188 87.679688 Z M 6.371094 87.679688 "/>
<path style=" stroke:none;fill-rule:nonzero;fill:rgb(100%,45.490196%,45.490196%);fill-opacity:1;" d="M 168.792969 87.679688 L 168.792969 6.378906 L 203.027344 6.378906 C 227.710938 6.378906 248.414062 26.304688 248.414062 51.8125 L 248.414062 87.679688 Z M 168.792969 87.679688 "/>
<path style=" stroke:none;fill-rule:nonzero;fill:rgb(40.392157%,46.27451%,97.647059%);fill-opacity:1;" d="M 167.199219 6.378906 L 87.578125 6.378906 L 87.578125 86.882812 L 167.199219 86.882812 Z M 167.199219 6.378906 "/>
<path style=" stroke:none;fill-rule:nonzero;fill:rgb(21.568627%,76.078431%,88.627451%);fill-opacity:1;" d="M 6.371094 203.253906 L 6.371094 172.167969 L 85.992188 172.167969 L 85.992188 248.6875 L 51.753906 248.6875 C 26.277344 248.6875 6.371094 228.761719 6.371094 203.253906 Z M 6.371094 203.253906 "/>
<path style=" stroke:none;fill-rule:nonzero;fill:rgb(94.901961%,60%,29.019608%);fill-opacity:1;" d="M 85.992188 89.273438 L 6.371094 89.273438 L 6.371094 169.773438 L 85.992188 169.773438 Z M 85.992188 89.273438 "/>
<path style=" stroke:none;fill-rule:evenodd;fill:rgb(18.431373%,18.431373%,22.745098%);fill-opacity:1;" d="M 0 203.253906 L 0 51.808594 C 0 23.113281 23.089844 0 51.753906 0 L 203.035156 0 C 231.695312 0 254.785156 23.113281 254.785156 51.808594 L 254.785156 125.140625 C 254.785156 153.835938 231.695312 176.949219 203.035156 176.949219 L 173.574219 176.949219 L 173.574219 203.253906 C 173.574219 231.949219 150.484375 255.0625 121.820312 255.0625 L 51.753906 255.0625 C 23.089844 255.0625 0 231.949219 0 203.253906 Z M 79.621094 80.503906 L 13.535156 80.503906 L 13.535156 51.011719 C 13.535156 30.289062 30.253906 12.753906 51.753906 12.753906 L 79.621094 12.753906 Z M 203.035156 164.195312 L 175.164062 164.195312 L 175.164062 95.648438 L 241.25 95.648438 L 241.25 125.9375 C 241.25 146.660156 224.53125 164.195312 203.035156 164.195312 Z M 121.820312 242.308594 L 93.953125 242.308594 L 93.953125 179.339844 L 160.039062 179.339844 L 160.039062 204.050781 C 160.039062 224.773438 143.316406 242.308594 121.820312 242.308594 Z M 93.953125 164.195312 L 160.039062 164.195312 L 160.039062 95.648438 L 93.953125 95.648438 Z M 175.164062 80.503906 L 241.25 80.503906 L 241.25 51.808594 C 241.25 30.289062 223.734375 13.550781 203.035156 13.550781 L 175.164062 13.550781 Z M 160.039062 80.503906 L 93.953125 80.503906 L 93.953125 12.753906 L 160.039062 12.753906 Z M 12.738281 178.542969 L 12.738281 203.253906 C 12.738281 224.773438 30.253906 241.511719 50.957031 241.511719 L 79.621094 241.511719 L 79.621094 178.542969 Z M 79.621094 164.195312 L 12.738281 164.195312 L 12.738281 95.648438 L 79.621094 95.648438 Z M 79.621094 164.195312 "/>
</g>
</svg>
